<?xml version="1.0" standalone="no"?><!DOCTYPE svg PUBLIC "-//W3C//DTD SVG 1.1//EN" "http://www.w3.org/Graphics/SVG/1.1/DTD/svg11.dtd"><svg t="1762420419935" class="icon" viewBox="0 0 1024 1024" version="1.1" xmlns="http://www.w3.org/2000/svg" p-id="23548" xmlns:xlink="http://www.w3.org/1999/xlink" width="200" height="200"><path d="M711.68 558.08m-281.6 0a281.6 281.6 0 1 0 563.2 0 281.6 281.6 0 1 0-563.2 0Z" fill="#FED847" p-id="23549"></path><path d="M893.40928 838.48192H138.496A97.792 97.792 0 0 1 40.96 740.63872V361.97376a20.65408 20.65408 0 1 1 41.30816 0v378.66496a56.39168 56.39168 0 0 0 56.22784 56.41216h754.91328a56.39168 56.39168 0 0 0 56.22784-56.41216V273.408a56.39168 56.39168 0 0 0-56.22784-56.41216H138.496a55.58272 55.58272 0 0 0-41.12384 17.95072 20.6848 20.6848 0 1 1-30.19776-28.2624 97.71008 97.71008 0 0 1 71.33184-31.11936h754.91328c53.93408 0.14336 97.56672 43.9296 97.52576 97.85344v467.28192a97.792 97.792 0 0 1-97.536 97.78176zM518.144 538.50112a157.4912 157.4912 0 0 1-92.4672-29.91104L69.632 233.34912a20.6848 20.6848 0 1 1 25.21088-32.768l355.54304 274.85184a116.29568 116.29568 0 0 0 133.45792 1.3312l292.43392-194.18112A20.70528 20.70528 0 0 1 899.072 317.1328L606.9248 511.09888a156.7232 156.7232 0 0 1-88.7808 27.40224z m-2.2016 217.088a20.70528 20.70528 0 0 1-11.4688-37.94944l185.86624-124.32384a20.70528 20.70528 0 0 1 22.91712 34.47808L527.36 752.128a20.48 20.48 0 0 1-11.38688 3.4816l-0.03072-0.02048z m165.2224 0a20.70528 20.70528 0 0 1-11.47904-37.94944l185.856-124.32384a20.70528 20.70528 0 0 1 22.92736 34.47808L692.62336 752.128a20.48 20.48 0 0 1-11.43808 3.4816l-0.02048-0.02048z" fill="" p-id="23550"></path></svg>