<?xml version="1.0" standalone="no"?><!DOCTYPE svg PUBLIC "-//W3C//DTD SVG 1.1//EN" "http://www.w3.org/Graphics/SVG/1.1/DTD/svg11.dtd"><svg t="1762332220148" class="icon" viewBox="0 0 1024 1024" version="1.1" xmlns="http://www.w3.org/2000/svg" p-id="7258" xmlns:xlink="http://www.w3.org/1999/xlink" width="200" height="200"><path d="M729.181091 614.4C667.182545 682.635636 667.182545 750.964364 605.090909 750.964364c-62.091636 0-124.090182-68.235636-186.181818-136.564364-62.091636-68.235636-124.090182-136.564364-124.090182-204.8 0-68.235636 61.998545-68.235636 124.090182-136.564364C481.000727 204.8 294.818909 0 232.727273 0S46.545455 204.8 46.545455 204.8c0 136.564364 127.534545 413.323636 248.273454 546.164364C415.464727 883.712 667.182545 1024 791.272727 1024c0 0 186.181818-136.564364 186.181818-204.8 0-68.235636-186.181818-273.035636-248.273454-204.8z" fill="#EB730F" p-id="7259"></path></svg>